# xmcd CD database file
#
# Track frame offsets:
#	150
#	14663
#	31587
#	49370
#	67614
#	90328
#	107152
#	121867
#	146496
#	161063
#	172256
#	186790
#	203250
#	220673
#
# Disc length: 3125 seconds
#
# Revision: 0
# Processed by: cddbd v1.5.1PL2 Copyright (c) Steve Scherf et al.
# Submitted via: CDex 1.51
#
DISCID=b50c330e
DTITLE=Pink - Try This
DYEAR=2003
DGENRE=Pop-Rock
TTITLE0=Trouble
TTITLE1=God Is A DJ
TTITLE2=Tonight's The Night
TTITLE3=The Last To Know
TTITLE4=Catch Me While I'm Sleeping
TTITLE5=Oh My God
TTITLE6=Save My Life
TTITLE7=Waiting For Love
TTITLE8=Unwind
TTITLE9=Love Song
TTITLE10=Try Too Hard
TTITLE11=Walk Away
TTITLE12=Humble Neighbourhood
TTITLE13=Feel Good Time
EXTD=YEAR: 2003
EXTT0=
EXTT1=
EXTT2=
EXTT3=
EXTT4=
EXTT5=
EXTT6=
EXTT7=
EXTT8=
EXTT9=
EXTT10=
EXTT11=
EXTT12=
EXTT13=
PLAYORDER=
